<svg xmlns="http://www.w3.org/2000/svg" viewBox="61.279998779296875 74.85983276367188 452.44000244140625 425.2799987792969"> <svg version="1.1" xmlns="http://www.w3.org/2000/svg" xmlns:xlink="http://www.w3.org/1999/xlink" x="186.14" y="144.85983276367188" viewBox="378.30078125 163.0234375 945.5 1049.375" xml:space="preserve" height="224.99685668945312" width="202.72497903290665" preserveAspectRatio="xMinYMin" enable-background="new 0 0 1600 1600" style="overflow: visible;"><radialGradient id="SVGID_1_" cx="712.8298" cy="541.2553" r="735.3447" gradientUnits="userSpaceOnUse" style=""><stop offset="0" style="stop-color: #00FCD2;"></stop><stop offset="1" style="stop-color: #00C1FC;"></stop></radialGradient><path id="Layer_1" class="st17" d="M1001.7,348.8l52.5-89.8l-134.3-77.6c-42.5-24.5-95.2-24.5-137.7,0l-335,193.4   c-42.5,24.5-68.8,70.2-68.8,119.2v119.4l27.7,0h24.3V494.2c0-30.5,16.4-58.9,42.8-74.2l335-193.4c26.4-15.3,59.3-15.3,85.7,0   l89,51.4l-52.5,89.8l237.4,137v111.8l52,0V474.7L1001.7,348.8z" style="fill: #ff475a; fill-opacity: 1;"></path><radialGradient id="SVGID_2_" cx="712.8298" cy="541.2553" r="735.3447" gradientUnits="userSpaceOnUse" style=""><stop offset="0" style="stop-color: #00FCD2;"></stop><stop offset="1" style="stop-color: #00C1FC;"></stop></radialGradient><path id="Layer_1" class="st18" d="M1072.9,510l-179-103.4c-26.4-15.3-59.3-15.3-85.7,0L629.2,510c-26.4,15.3-42.8,43.7-42.8,74.2V791   c0,30.5,16.4,58.9,42.8,74.2l179,103.4c13.2,7.6,28,11.4,42.8,11.4c14.8,0,29.6-3.8,42.8-11.4l179-103.4   c26.4-15.3,42.8-43.7,42.8-74.2V584.2C1115.8,553.7,1099.4,525.3,1072.9,510z M1046.9,555.1c10.4,6,16.8,17.2,16.8,29.2v205.7   l-184-101.1V458.6L1046.9,555.1z M655.2,555.1l172.6-99.7v235.2l-189.4,93.1V584.2C638.3,572.2,644.8,561.1,655.2,555.1z    M867.9,923.5c-10.4,6-23.3,6-33.7,0l-166.7-96.2l188-92.4l173.8,95.5L867.9,923.5z" style="fill: #ff475a; fill-opacity: 1;"></path><radialGradient id="SVGID_3_" cx="712.8298" cy="541.2553" r="735.3447" gradientUnits="userSpaceOnUse" style=""><stop offset="0" style="stop-color: #00FCD2;"></stop><stop offset="1" style="stop-color: #00C1FC;"></stop></radialGradient><path id="Layer_1" class="st24" d="M1271.8,758.7v122.4c0,30.5-16.4,58.9-42.8,74.2l-336.3,194.2c-25.6,14.8-57.5,14.8-83.1,0L473.2,955.3   c-26.4-15.3-42.8-43.7-42.8-74.2V713.6h104V539.2c0-21.3,11.4-41.1,29.8-51.7L850.9,322l38.9,23l13.2-22.4l13-22.5l-64.9-38.3   l-313,180.7c-34.4,19.9-55.8,56.9-55.8,96.7v122.4h-104v219.4c0,49,26.4,94.7,68.8,119.2l336.3,194.2c20.8,12,44.2,18,67.6,18   s46.7-6,67.6-18l336.3-194.2c42.5-24.5,68.8-70.2,68.8-119.2V758.7L1271.8,758.7z" style="fill: #ff475a; fill-opacity: 1;"></path><radialGradient id="SVGID_4_" cx="712.8298" cy="541.2553" r="735.3447" gradientUnits="userSpaceOnUse" style=""><stop offset="0" style="stop-color: #00FCD2;"></stop><stop offset="1" style="stop-color: #00C1FC;"></stop></radialGradient><path id="Layer_1" class="st25" d="M1272.5,385.1l-177.7-102.6l-13,22.5l-13,22.5l177.8,102.6c15.6,9,25.3,25.8,25.3,43.8v187.7l-104,0V836   c0,21.3-11.4,41.1-29.8,51.7l-257,148.4c-18.4,10.6-41.3,10.6-59.7,0l-257-148.4c-18.4-10.6-29.8-30.4-29.8-51.7v-75.2l-22.6,0   h-29.4V836c0,39.8,21.4,76.8,55.8,96.7l257,148.4c17.2,9.9,36.5,14.9,55.8,14.9c19.3,0,38.6-5,55.8-14.9l257-148.4   c34.4-19.9,55.8-56.9,55.8-96.7V713.6l104,0V473.9C1323.8,437.4,1304.1,403.3,1272.5,385.1z" style="fill: #ff475a; fill-opacity: 1;"></path><g id="Layer_2" style=""></g></svg> <svg y="401.8598327636719" viewBox="3.2300000190734863 6.380000114440918 312.44000244140625 28.279998779296875" x="131.27999877929688" height="28.279998779296875" width="312.44000244140625" xmlns="http://www.w3.org/2000/svg" style="overflow: visible;"><g fill="#ff475a" fill-opacity="1" style=""><path d="M14.86 34.20L6.19 34.20L6.19 29.79L14.67 29.79Q16.04 29.79 17.02 29.13Q18.01 28.46 18.01 26.79L18.01 26.79Q18.01 25.23 17.06 24.59Q16.11 23.94 14.67 23.94L14.67 23.94L6.19 23.94L6.19 19.76L13.15 19.76Q14.63 19.76 15.60 19.08Q16.57 18.39 17.06 17.29Q17.56 16.19 17.56 14.90L17.56 14.90Q17.56 12.88 16.42 12.12Q15.28 11.36 13.45 11.36L13.45 11.36L6.19 11.36L6.19 6.84L13.76 6.84Q18.35 6.84 20.65 8.74Q22.95 10.64 22.95 14.40L22.95 14.40Q22.95 15.96 22.38 17.46Q21.81 18.96 20.67 20.20Q19.53 21.43 17.86 22.12L17.86 22.12L17.59 21.05Q20.41 21.36 21.91 23.01Q23.41 24.66 23.41 27.09L23.41 27.09Q23.41 29.11 22.50 30.70Q21.58 32.30 19.68 33.25Q17.78 34.20 14.86 34.20L14.86 34.20ZM8.63 34.20L3.23 34.20L3.23 6.84L8.63 6.84L8.63 34.20ZM50.92 34.20L34.54 34.20L34.54 6.84L39.93 6.84L39.93 29.49L50.92 29.49L50.92 34.20ZM58.97 20.52L58.97 20.52Q58.97 16.34 60.56 13.15Q62.16 9.96 65.16 8.17Q68.16 6.38 72.42 6.38L72.42 6.38Q76.64 6.38 79.64 8.17Q82.64 9.96 84.24 13.15Q85.83 16.34 85.83 20.52L85.83 20.52Q85.83 24.70 84.24 27.89Q82.64 31.08 79.64 32.87Q76.64 34.66 72.42 34.66L72.42 34.66Q68.16 34.66 65.16 32.87Q62.16 31.08 60.56 27.91Q58.97 24.74 58.97 20.52ZM64.52 20.52L64.52 20.52Q64.52 23.45 65.45 25.57Q66.38 27.70 68.13 28.84Q69.87 29.98 72.42 29.98L72.42 29.98Q74.93 29.98 76.68 28.84Q78.42 27.70 79.35 25.57Q80.29 23.45 80.29 20.52L80.29 20.52Q80.29 17.59 79.35 15.47Q78.42 13.34 76.68 12.20Q74.93 11.06 72.42 11.06L72.42 11.06Q69.87 11.06 68.13 12.20Q66.38 13.34 65.45 15.47Q64.52 17.59 64.52 20.52ZM95.67 20.52L95.67 20.52Q95.67 16.23 97.33 13.05Q98.98 9.88 102.23 8.13Q105.48 6.38 110.23 6.38L110.23 6.38Q112.16 6.38 113.70 6.69Q115.24 6.99 116.27 7.49L116.27 7.49L116.27 12.27L115.89 12.27Q114.90 11.70 113.49 11.38Q112.09 11.06 110.49 11.06L110.49 11.06Q107.45 11.06 105.40 12.16Q103.35 13.26 102.28 15.37Q101.22 17.48 101.22 20.52L101.22 20.52Q101.22 23.56 102.28 25.67Q103.35 27.78 105.40 28.88Q107.45 29.98 110.49 29.98L110.49 29.98Q112.09 29.98 113.49 29.66Q114.90 29.34 115.89 28.77L115.89 28.77L116.27 28.77L116.27 33.55Q115.24 34.05 113.70 34.35Q112.16 34.66 110.23 34.66L110.23 34.66Q105.48 34.66 102.23 32.95Q98.98 31.24 97.33 28.06Q95.67 24.89 95.67 20.52ZM135.34 24.28L135.34 24.28L130.63 24.28L130.63 19.65L135.07 19.65Q136.97 19.65 137.98 18.81Q138.99 17.97 139.52 16.57L139.52 16.57L143.47 6.84L148.91 6.84L148.91 7.22L144.38 18.01Q143.66 19.76 142.43 21.20Q141.19 22.65 139.42 23.46Q137.66 24.28 135.34 24.28ZM133.14 34.20L127.70 34.20L127.70 6.84L133.14 6.84L133.14 34.20ZM136.78 23.45L141.15 21.24L149.17 33.82L149.17 34.20L143.32 34.20L136.78 23.45ZM158.74 33.21L158.74 28.27L159.12 28.27Q160.04 28.77 161.29 29.18Q162.54 29.60 164.04 29.85Q165.55 30.10 167.14 30.10L167.14 30.10Q168.89 30.10 170.14 29.81Q171.40 29.53 172.08 28.86Q172.77 28.20 172.77 27.06L172.77 27.06Q172.77 25.65 171.89 25.00Q171.02 24.36 169.04 24.02L169.04 24.02L166.15 23.52Q163.72 23.14 161.94 22.17Q160.15 21.20 159.18 19.55Q158.21 17.90 158.21 15.50L158.21 15.50Q158.21 12.54 159.60 10.51Q160.99 8.47 163.72 7.43Q166.46 6.38 170.45 6.38L170.45 6.38Q172.27 6.38 174.00 6.71Q175.73 7.03 176.83 7.52L176.83 7.52L176.83 12.27L176.49 12.27Q175.43 11.78 173.81 11.36Q172.20 10.94 170.11 10.94L170.11 10.94Q168.13 10.94 166.63 11.38Q165.13 11.82 164.31 12.77Q163.49 13.72 163.49 15.24L163.49 15.24Q163.49 17.14 164.60 17.90Q165.70 18.66 167.90 19.08L167.90 19.08L170.71 19.53Q172.80 19.87 174.48 20.73Q176.15 21.58 177.12 23.08Q178.09 24.59 178.09 26.90L178.09 26.90Q178.09 28.96 177.27 30.44Q176.45 31.92 174.97 32.85Q173.49 33.78 171.49 34.22Q169.50 34.66 167.14 34.66L167.14 34.66Q165.47 34.66 163.93 34.45Q162.39 34.24 161.04 33.91Q159.69 33.59 158.74 33.21L158.74 33.21ZM200.20 34.20L194.76 34.20L194.76 22.84L185.57 7.22L185.57 6.84L191.38 6.84L198.68 19.84L196.66 19.84L203.69 6.84L209.43 6.84L209.43 7.22L200.20 22.69L200.20 34.20ZM241.65 34.58L241.65 34.58Q240.17 34.58 238.76 34.43Q237.36 34.28 235.84 33.93L235.84 33.93L235.76 33.48Q235.84 32.60 235.82 31.56Q235.80 30.51 235.76 29.43Q235.72 28.35 235.65 27.47L235.65 27.47L233.48 6.84L238.76 6.84L240.63 26.22Q240.74 27.40 240.76 28.75Q240.78 30.10 240.74 31.08L240.74 31.08L239.03 29.68Q239.71 29.83 240.28 29.92Q240.85 30.02 241.73 30.02L241.73 30.02Q243.40 30.02 244.50 29.41Q245.60 28.80 246.23 27.68Q246.86 26.56 247.12 24.97L247.12 24.97L250.35 6.84L255.79 6.84L252.44 25.16Q251.87 28.31 250.54 30.42Q249.21 32.53 247.03 33.55Q244.84 34.58 241.65 34.58ZM225.35 34.58L225.35 34.58Q224.02 34.58 222.86 34.43Q221.70 34.28 220.26 33.93L220.26 33.93L220.14 33.48Q220.18 32.68 220.16 31.54Q220.14 30.40 220.09 29.28Q220.03 28.16 219.95 27.40L219.95 27.40L217.86 6.84L223.34 6.84L225.20 26.22Q225.31 27.40 225.31 28.75Q225.31 30.10 225.35 31.08L225.35 31.08L224.25 29.72Q224.82 29.83 225.31 29.92Q225.81 30.02 226.53 30.02L226.53 30.02Q228.24 30.02 229.28 29.35Q230.33 28.69 230.90 27.49Q231.47 26.30 231.85 24.78L231.85 24.78L235.15 12.16L236.29 23.33L235.46 26.22Q234.70 28.88 233.46 30.76Q232.23 32.64 230.25 33.61Q228.28 34.58 225.35 34.58ZM271.55 34.20L266.16 34.20L266.16 6.84L271.55 6.84L271.55 34.20ZM284.36 34.20L269.12 34.20L269.12 29.49L284.36 29.49L284.36 34.20ZM281.97 22.46L269.12 22.46L269.12 17.94L281.97 17.94L281.97 22.46ZM283.98 11.55L269.12 11.55L269.12 6.84L283.98 6.84L283.98 11.55ZM307.12 34.20L298.45 34.20L298.45 29.79L306.93 29.79Q308.30 29.79 309.28 29.13Q310.27 28.46 310.27 26.79L310.27 26.79Q310.27 25.23 309.32 24.59Q308.37 23.94 306.93 23.94L306.93 23.94L298.45 23.94L298.45 19.76L305.41 19.76Q306.89 19.76 307.86 19.08Q308.83 18.39 309.32 17.29Q309.82 16.19 309.82 14.90L309.82 14.90Q309.82 12.88 308.68 12.12Q307.54 11.36 305.71 11.36L305.71 11.36L298.45 11.36L298.45 6.84L306.02 6.84Q310.61 6.84 312.91 8.74Q315.21 10.64 315.21 14.40L315.21 14.40Q315.21 15.96 314.64 17.46Q314.07 18.96 312.93 20.20Q311.79 21.43 310.12 22.12L310.12 22.12L309.85 21.05Q312.67 21.36 314.17 23.01Q315.67 24.66 315.67 27.09L315.67 27.09Q315.67 29.11 314.76 30.70Q313.84 32.30 311.94 33.25Q310.04 34.20 307.12 34.20L307.12 34.20ZM300.89 34.20L295.49 34.20L295.49 6.84L300.89 6.84L300.89 34.20Z" transform="translate(0, 0)"></path></g></svg></svg>